<?xml version="1.0" standalone="no"?>
<!DOCTYPE svg PUBLIC "-//W3C//DTD SVG 20010904//EN"
 "http://www.w3.org/TR/2001/REC-SVG-20010904/DTD/svg10.dtd">
<svg version="1.0" xmlns="http://www.w3.org/2000/svg"
 width="80.000000pt" height="80.000000pt" viewBox="0 0 80.000000 80.000000"
 preserveAspectRatio="xMidYMid meet">

<g transform="translate(0.000000,80.000000) scale(0.100000,-0.100000)"
fill="#000000" stroke="none">
<path d="M120 400 l0 -380 280 0 280 0 0 105 c0 63 -4 105 -10 105 -6 0 -10
-38 -10 -95 l0 -95 -260 0 -260 0 0 360 0 360 260 0 260 0 0 -95 c0 -57 4 -95
10 -95 6 0 10 42 10 105 l0 105 -280 0 -280 0 0 -380z"/>
<path d="M520 537 l0 -77 -160 0 -160 0 0 -60 0 -60 160 0 160 0 0 -77 0 -78
107 108 108 107 -108 107 -107 108 0 -78z m200 -137 c0 -3 -40 -44 -90 -89
l-90 -82 0 65 0 66 -160 0 -160 0 0 40 0 40 160 0 160 0 0 66 0 66 90 -83 c50
-45 90 -85 90 -89z"/>
</g>
</svg>
